<?xml version="1.0" encoding="UTF-8" standalone="no"?>
<svg
   xmlns:dc="http://purl.org/dc/elements/1.1/"
   xmlns:cc="http://creativecommons.org/ns#"
   xmlns:rdf="http://www.w3.org/1999/02/22-rdf-syntax-ns#"
   xmlns:svg="http://www.w3.org/2000/svg"
   xmlns="http://www.w3.org/2000/svg"
   xmlns:xlink="http://www.w3.org/1999/xlink"
   xmlns:sodipodi="http://sodipodi.sourceforge.net/DTD/sodipodi-0.dtd"
   xmlns:inkscape="http://www.inkscape.org/namespaces/inkscape"
   width="157mm"
   height="63mm"
   viewBox="0 0 157 63"
   version="1.1"
   id="svg8"
   inkscape:version="1.0.1 (3bc2e813f5, 2020-09-07)"
   sodipodi:docname="tehnoprodaja.svg">
  <defs
     id="defs2">
    <linearGradient
       inkscape:collect="always"
       id="linearGradient869">
      <stop
         style="stop-color:#ff9700;stop-opacity:1;"
         offset="0"
         id="stop865" />
      <stop
         style="stop-color:#ff2f00;stop-opacity:1"
         offset="1"
         id="stop867" />
    </linearGradient>
    <linearGradient
       inkscape:collect="always"
       id="linearGradient1020">
      <stop
         style="stop-color:#2b2b2b;stop-opacity:1"
         offset="0"
         id="stop1016" />
      <stop
         style="stop-color:#b4b4b4;stop-opacity:1"
         offset="1"
         id="stop1018" />
    </linearGradient>
    <inkscape:path-effect
       effect="fillet_chamfer"
       id="path-effect951"
       is_visible="true"
       lpeversion="1"
       satellites_param="F,0,0,1,0,0,0,1 @ F,0,0,1,0,3.1412522,0,1 @ F,0,0,1,0,2.0651758,0,1 @ F,0,0,1,0,3.0790524,0,1"
       unit="px"
       method="auto"
       mode="F"
       radius="0"
       chamfer_steps="1"
       flexible="false"
       use_knot_distance="true"
       apply_no_radius="true"
       apply_with_radius="true"
       only_selected="false"
       hide_knots="false" />
    <linearGradient
       inkscape:collect="always"
       id="linearGradient945">
      <stop
         style="stop-color:#81f2ff;stop-opacity:1"
         offset="0"
         id="stop941" />
      <stop
         style="stop-color:#5793ff;stop-opacity:1"
         offset="1"
         id="stop943" />
    </linearGradient>
    <linearGradient
       inkscape:collect="always"
       xlink:href="#linearGradient945"
       id="linearGradient947"
       x1="28.614277"
       y1="55.758957"
       x2="126.7357"
       y2="56.892887"
       gradientUnits="userSpaceOnUse"
       gradientTransform="translate(8.844643,-24.11488)" />
    <linearGradient
       inkscape:collect="always"
       xlink:href="#linearGradient945"
       id="linearGradient961"
       x1="18.199198"
       y1="30.703934"
       x2="87.789612"
       y2="31.100809"
       gradientUnits="userSpaceOnUse"
       gradientTransform="translate(8.466666,-23.547916)" />
    <linearGradient
       inkscape:collect="always"
       xlink:href="#linearGradient945"
       id="linearGradient975"
       x1="45.275833"
       y1="80.1026"
       x2="55.165623"
       y2="80.09948"
       gradientUnits="userSpaceOnUse"
       gradientTransform="translate(11.377083,-26.987499)" />
    <linearGradient
       inkscape:collect="always"
       xlink:href="#linearGradient945"
       id="linearGradient975-5"
       x1="45.275833"
       y1="80.1026"
       x2="55.165623"
       y2="80.09948"
       gradientUnits="userSpaceOnUse"
       gradientTransform="translate(42.53177,-24.010934)" />
    <linearGradient
       inkscape:collect="always"
       xlink:href="#linearGradient1020"
       id="linearGradient1022"
       x1="49.10648"
       y1="29.851919"
       x2="81.502365"
       y2="29.322752"
       gradientUnits="userSpaceOnUse"
       gradientTransform="translate(8.466666,-23.547916)" />
    <linearGradient
       inkscape:collect="always"
       xlink:href="#linearGradient869"
       id="linearGradient871"
       x1="44.053928"
       y1="57.711018"
       x2="198.88391"
       y2="58.540043"
       gradientUnits="userSpaceOnUse"
       gradientTransform="translate(-39.70465,-20.85747)" />
    <linearGradient
       inkscape:collect="always"
       xlink:href="#linearGradient869"
       id="linearGradient871-8"
       x1="44.053928"
       y1="57.711018"
       x2="198.88391"
       y2="58.540043"
       gradientUnits="userSpaceOnUse"
       gradientTransform="translate(-26.2326,6.2423234)" />
  </defs>
  <sodipodi:namedview
     id="base"
     pagecolor="#ffffff"
     bordercolor="#666666"
     borderopacity="1.0"
     inkscape:pageopacity="0.0"
     inkscape:pageshadow="2"
     inkscape:zoom="2.0000001"
     inkscape:cx="267.8473"
     inkscape:cy="103.56608"
     inkscape:document-units="mm"
     inkscape:current-layer="layer1"
     inkscape:document-rotation="0"
     showgrid="false"
     inkscape:window-width="1920"
     inkscape:window-height="1009"
     inkscape:window-x="1912"
     inkscape:window-y="-8"
     inkscape:window-maximized="1" />
  <metadata
     id="metadata5">
    <rdf:RDF>
      <cc:Work
         rdf:about="">
        <dc:format>image/svg+xml</dc:format>
        <dc:type
           rdf:resource="http://purl.org/dc/dcmitype/StillImage" />
        <dc:title></dc:title>
      </cc:Work>
    </rdf:RDF>
  </metadata>
  <g
     inkscape:label="Layer 1"
     inkscape:groupmode="layer"
     id="layer1">
    <path
       style="fill:url(#linearGradient947);fill-opacity:1;stroke:#000000;stroke-width:0.465;stroke-linecap:butt;stroke-linejoin:miter;stroke-miterlimit:4;stroke-dasharray:none;stroke-opacity:1"
       d="m 37.759821,11.603869 83.604409,0.72858 a 2.4291851,2.4291851 52.783891 0 1 2.32449,3.060617 l -9.2298,34.282112 a 2.4450238,2.4450238 145.25441 0 1 -2.59276,1.798369 L 49.518455,45.535672 a 4.3916378,4.3916378 40.475285 0 1 -3.835583,-3.273037 z"
       id="path847" />
    <path
       style="fill:url(#linearGradient961);fill-opacity:1;stroke:#000000;stroke-width:0.465;stroke-linecap:butt;stroke-linejoin:miter;stroke-miterlimit:4;stroke-dasharray:none;stroke-opacity:1"
       d="m 37.759821,11.603869 -0.09202,-0.33882 -1.137832,-4.8787766 -8.552626,-0.53454 -0.989842,-3.130303 13.701636,0.566964 1.319855,8.3096336 z"
       id="path953"
       sodipodi:nodetypes="cccccccc" />
    <path
       id="path967"
       style="opacity:1;fill:url(#linearGradient975);fill-opacity:1;stroke:#000000;stroke-width:0.465;stroke-miterlimit:4;stroke-dasharray:none"
       d="m 66.542707,53.115105 a 4.8286457,4.8286457 0 0 1 -4.827866,4.828645 4.8286457,4.8286457 0 0 1 -4.829425,-4.827086 4.8286457,4.8286457 0 0 1 4.826307,-4.830204 4.8286457,4.8286457 0 0 1 4.830983,4.825526" />
    <path
       id="path967-0"
       style="opacity:1;fill:url(#linearGradient975-5);fill-opacity:1;stroke:#000000;stroke-width:0.465;stroke-miterlimit:4;stroke-dasharray:none"
       d="m 97.697397,56.091667 a 4.8286457,4.8286457 0 0 1 -4.827866,4.828646 4.8286457,4.8286457 0 0 1 -4.829425,-4.827087 4.8286457,4.8286457 0 0 1 4.826307,-4.830204 4.8286457,4.8286457 0 0 1 4.830983,4.825527" />
    <path
       style="fill:url(#linearGradient1022);fill-opacity:1;stroke:#000000;stroke-width:0.465;stroke-linecap:butt;stroke-linejoin:miter;stroke-miterlimit:4;stroke-dasharray:none;stroke-opacity:1"
       d="m 59.074149,11.765069 2.245067,-2.7595566 -3.414369,-2.712786 1.964431,-2.338607 3.554685,2.993416 3.461139,-1.870884 -0.608039,-3.975635 3.086965,-0.46772204 0.701582,3.83531804 3.648229,1.169305 1.870887,-3.928863 2.712786,1.30962 -1.777344,3.507912 2.33861,2.291837 2.946646,-2.478924 2.011204,2.61924 -3.367599,2.3853796 0.795129,0.654812 z"
       id="path1014" />
    <g
       aria-label="Tehnoprodaja"
       transform="matrix(0.99558214,-0.02931497,-0.09389479,1.0072022,0,0)"
       id="text1026-5"
       style="font-size:16.9333px;line-height:1.25;font-family:Arial;-inkscape-font-specification:Arial;word-spacing:0px;opacity:0.848387;fill:#000000;fill-opacity:1;stroke:#000000;stroke-width:0.165;stroke-miterlimit:4;stroke-dasharray:none;stroke-opacity:1">
      <path
         d="m 18.439552,31.441847 h -6.502388 v -0.03387 q -1.473197,-0.01693 -2.4722614,0.270932 -0.9821314,0.287867 -1.7102633,0.863599 -0.7111986,0.558799 -1.2530642,1.38853 -0.5418656,0.829732 -1.1006645,1.89653 -0.033867,0.118533 0.084667,0.1524 0.1354664,0.03387 0.2201329,-0.06773 0.2709328,-0.338666 0.5757322,-0.626532 0.3047994,-0.287866 0.8127984,-0.491065 0.5249323,-0.2032 1.3377307,-0.287866 0.8297317,-0.1016 2.1505287,-0.06773 l -2.9463938,9.635048 h 3.8269258 l 2.912528,-9.635048 h 3.149593 z"
         style="font-style:normal;font-variant:normal;font-weight:normal;font-stretch:normal;font-size:16.9333px;font-family:Masque;-inkscape-font-specification:Masque;fill:#000000;fill-opacity:1;stroke:#000000;stroke-width:0.165;stroke-miterlimit:4;stroke-dasharray:none;stroke-opacity:1"
         id="path1428" />
      <path
         d="m 28.176172,36.352504 q -1.456264,0 -2.336795,0 -0.863599,-0.01693 -1.354664,-0.01693 -0.474133,0 -0.694266,0.01693 -0.203199,0 -0.355599,0.01693 0.169333,-0.237067 0.287866,-0.558799 0.135467,-0.338666 0.287866,-0.643466 0.169333,-0.304799 0.389466,-0.507999 0.220133,-0.220133 0.558799,-0.220133 h 5.384789 l 0.914399,-3.03106 h -7.281319 q -1.202265,0 -2.201329,0.321732 -0.982132,0.321733 -1.79493,0.914399 -0.812799,0.575732 -1.473197,1.38853 -0.643466,0.812799 -1.151465,1.79493 -0.0508,0.1016 0.0508,0.1524 0.1016,0.03387 0.186267,-0.01693 0.03387,0 0.08467,-0.0508 0.304799,-0.321732 0.592666,-0.474132 0.304799,-0.169333 0.575732,-0.253999 0.287866,-0.08467 0.541865,-0.135467 0.270933,-0.0508 0.507999,-0.135466 -0.524932,1.185331 -0.914398,2.438395 -0.372532,1.236131 -0.609599,2.523062 -0.118533,0.643465 -0.08467,1.371597 0.0508,0.728132 0.304799,1.354664 0.254,0.626532 0.745065,1.066798 0.507999,0.440266 1.303865,0.524932 3.555993,0.389466 7.078119,-0.1524 l 0.897465,-3.13266 q -1.405464,0.270933 -2.861728,0.321733 -1.456264,0.03387 -2.895594,-0.186267 -0.237066,-0.03387 -0.423333,-0.253999 -0.186266,-0.220133 -0.152399,-0.457199 0.0508,-0.389466 0.169333,-0.778932 0.118533,-0.389466 0.203199,-0.778932 h 4.775191 z"
         style="font-style:normal;font-variant:normal;font-weight:normal;font-stretch:normal;font-size:16.9333px;font-family:Masque;-inkscape-font-specification:Masque;fill:#000000;fill-opacity:1;stroke:#000000;stroke-width:0.165;stroke-miterlimit:4;stroke-dasharray:none;stroke-opacity:1"
         id="path1430" />
      <path
         d="m 36.625865,44.057156 h 3.826926 l 3.826925,-12.615309 h -3.793059 l -1.117598,3.657593 h -2.760127 l 1.100664,-3.640659 H 33.93347 l -1.185331,3.860792 q -0.677332,0.1524 -1.202264,0.491066 -0.507999,0.338666 -0.948265,0.829731 -0.423332,0.491066 -0.812798,1.134531 -0.372533,0.626533 -0.778932,1.388531 -0.03387,0.118533 0.1016,0.1524 0.118533,0.03387 0.203199,-0.08467 0.423333,-0.491065 1.083731,-0.812798 0.660399,-0.321733 1.557864,-0.507999 l -1.879596,6.163721 h 3.809992 l 1.913463,-6.299188 h 2.760128 z"
         style="font-style:normal;font-variant:normal;font-weight:normal;font-stretch:normal;font-size:16.9333px;font-family:Masque;-inkscape-font-specification:Masque;fill:#000000;fill-opacity:1;stroke:#000000;stroke-width:0.165;stroke-miterlimit:4;stroke-dasharray:none;stroke-opacity:1"
         id="path1432" />
      <path
         d="m 52.323012,32.779578 q -0.06773,-0.304799 -0.253999,-0.541866 -0.169333,-0.237066 -0.423333,-0.406399 -0.253999,-0.186266 -0.558798,-0.270933 -0.3048,-0.101599 -0.609599,-0.101599 h -3.793059 l -3.79306,12.615308 h 3.74226 l 2.641594,-8.771449 1.777997,8.771449 h 4.504258 l 3.776126,-12.615308 h -3.623727 l -2.235195,7.315185 z"
         style="font-style:normal;font-variant:normal;font-weight:normal;font-stretch:normal;font-size:16.9333px;font-family:Masque;-inkscape-font-specification:Masque;fill:#000000;fill-opacity:1;stroke:#000000;stroke-width:0.165;stroke-miterlimit:4;stroke-dasharray:none;stroke-opacity:1"
         id="path1434" />
      <path
         d="m 72.270434,34.185042 v -0.457199 q -0.220133,-0.914398 -0.829731,-1.388531 -0.609599,-0.491066 -1.405464,-0.711198 -0.778932,-0.220133 -1.659464,-0.254 -0.863598,-0.03387 -1.608663,-0.03387 -1.507064,0 -2.573862,0.237067 -1.066798,0.220133 -1.777996,0.592665 -0.694266,0.355599 -1.100665,0.795865 -0.389466,0.440266 -0.558799,0.863599 -0.321732,0.778931 -0.643465,1.676396 -0.321733,0.880532 -0.609599,1.811863 -0.270933,0.931332 -0.491066,1.879597 -0.203199,0.931331 -0.287866,1.811863 -0.06773,0.761998 0.118533,1.303864 0.2032,0.524932 0.592666,0.897465 0.389466,0.355599 0.914398,0.575732 0.541866,0.2032 1.151465,0.304799 0.609598,0.118533 1.23613,0.135467 0.626533,0.03387 1.202265,0.03387 0.795865,0 1.574797,-0.06773 0.795865,-0.06773 1.59173,-0.203199 0.982131,-0.169333 1.811863,-0.761999 0.829732,-0.592665 1.253064,-1.523997 0.795865,-1.828796 1.303864,-3.691459 0.507999,-1.879597 0.795865,-3.826926 z m -5.757322,6.46852 q -0.08467,0.389466 -0.372532,0.609599 -0.287866,0.220133 -0.677332,0.321733 -0.372533,0.1016 -0.795865,0.135466 -0.4064,0.01693 -0.728132,0.01693 -0.338666,0.03387 -0.626532,-0.0508 -0.287866,-0.08467 -0.474133,-0.254 -0.186266,-0.186266 -0.270933,-0.440266 -0.06773,-0.270932 0.01693,-0.609598 0.304799,-1.439331 0.745065,-2.844795 0.440266,-1.405464 0.948265,-2.726261 0.118533,-0.321733 0.372532,-0.507999 0.254,-0.2032 0.558799,-0.304799 0.321733,-0.118534 0.660399,-0.1524 0.338666,-0.03387 0.626532,-0.03387 0.254,0 0.609599,0.03387 0.355599,0.03387 0.643465,0.1524 0.3048,0.101599 0.474133,0.338666 0.169333,0.220132 0.08467,0.609598 -0.287866,1.473197 -0.745065,2.895595 -0.457199,1.405464 -1.049865,2.810927 z"
         style="font-style:normal;font-variant:normal;font-weight:normal;font-stretch:normal;font-size:16.9333px;font-family:Masque;-inkscape-font-specification:Masque;fill:#000000;fill-opacity:1;stroke:#000000;stroke-width:0.165;stroke-miterlimit:4;stroke-dasharray:none;stroke-opacity:1"
         id="path1436" />
      <path
         d="m 80.432267,40.484229 q 0.541866,0 1.032931,-0.203199 0.507999,-0.2032 0.948265,-0.524932 0.440266,-0.338666 0.812799,-0.761999 0.372532,-0.440266 0.677332,-0.897465 0.541865,-0.846665 0.829731,-1.811863 0.287866,-0.965198 0.287866,-1.964263 0,-0.507999 -0.186266,-0.982131 -0.186266,-0.474133 -0.524932,-0.829732 -0.575732,-0.575732 -1.337731,-0.812798 -0.745065,-0.237066 -1.557863,-0.237066 h -6.417721 l -3.809993,12.615308 h 3.776126 l 1.100665,-3.58986 z m -3.606793,-2.590794 1.269998,-4.148659 H 80.4492 q 0.237067,0 0.423333,0.118533 0.186266,0.1016 0.321733,0.287866 0.135466,0.169333 0.203199,0.389466 0.08467,0.220133 0.08467,0.423333 0,0.592665 -0.220133,1.117597 -0.2032,0.524933 -0.592666,0.948265 -0.152399,0.169333 -0.304799,0.338666 -0.135466,0.1524 -0.355599,0.270933 -0.2032,0.118533 -0.507999,0.186266 -0.3048,0.06773 -0.778932,0.06773 z"
         style="font-style:normal;font-variant:normal;font-weight:normal;font-stretch:normal;font-size:16.9333px;font-family:Masque;-inkscape-font-specification:Masque;fill:#000000;fill-opacity:1;stroke:#000000;stroke-width:0.165;stroke-miterlimit:4;stroke-dasharray:none;stroke-opacity:1"
         id="path1438" />
      <path
         d="m 92.471811,44.074089 h 3.555993 l -1.286931,-3.928526 q 0.643465,-0.338666 1.168398,-0.880531 0.541865,-0.558799 0.931331,-1.168398 0.558799,-0.846665 0.829732,-1.811863 0.287866,-0.965198 0.287866,-1.964263 0,-0.728132 -0.321733,-1.269997 -0.321733,-0.541866 -0.829732,-0.897465 -0.507999,-0.355599 -1.151464,-0.524932 -0.643465,-0.169333 -1.286931,-0.169333 h -6.383854 l -3.809992,12.615308 h 3.657592 l 1.083732,-3.58986 h 2.336795 z m -2.777062,-6.180654 1.253065,-4.148659 h 2.336795 q 0.237066,0 0.423333,0.118533 0.203199,0.1016 0.338666,0.287866 0.135466,0.169333 0.203199,0.389466 0.08467,0.220133 0.08467,0.423333 0,0.592665 -0.220133,1.117597 -0.2032,0.524933 -0.592666,0.948265 -0.152399,0.169333 -0.304799,0.338666 -0.135467,0.1524 -0.355599,0.270933 -0.2032,0.118533 -0.524933,0.186266 -0.304799,0.06773 -0.778932,0.06773 z"
         style="font-style:normal;font-variant:normal;font-weight:normal;font-stretch:normal;font-size:16.9333px;font-family:Masque;-inkscape-font-specification:Masque;fill:#000000;fill-opacity:1;stroke:#000000;stroke-width:0.165;stroke-miterlimit:4;stroke-dasharray:none;stroke-opacity:1"
         id="path1440" />
      <path
         d="m 111.33548,34.185042 v -0.457199 q -0.22013,-0.914398 -0.82973,-1.388531 -0.6096,-0.491066 -1.40547,-0.711198 -0.77893,-0.220133 -1.65946,-0.254 -0.8636,-0.03387 -1.60866,-0.03387 -1.50707,0 -2.57387,0.237067 -1.06679,0.220133 -1.77799,0.592665 -0.69427,0.355599 -1.10067,0.795865 -0.389462,0.440266 -0.558795,0.863599 -0.321733,0.778931 -0.643466,1.676396 -0.321732,0.880532 -0.609598,1.811863 -0.270933,0.931332 -0.491066,1.879597 -0.2032,0.931331 -0.287866,1.811863 -0.06773,0.761998 0.118533,1.303864 0.203199,0.524932 0.592665,0.897465 0.389466,0.355599 0.914399,0.575732 0.541865,0.2032 1.151464,0.304799 0.6096,0.118533 1.23613,0.135467 0.62653,0.03387 1.20227,0.03387 0.79586,0 1.57479,-0.06773 0.79587,-0.06773 1.59173,-0.203199 0.98213,-0.169333 1.81187,-0.761999 0.82973,-0.592665 1.25306,-1.523997 0.79586,-1.828796 1.30386,-3.691459 0.508,-1.879597 0.79587,-3.826926 z m -5.75732,6.46852 q -0.0847,0.389466 -0.37254,0.609599 -0.28786,0.220133 -0.67733,0.321733 -0.37253,0.1016 -0.79586,0.135466 -0.4064,0.01693 -0.72813,0.01693 -0.33867,0.03387 -0.62654,-0.0508 -0.28786,-0.08467 -0.47413,-0.254 -0.18627,-0.186266 -0.27093,-0.440266 -0.0677,-0.270932 0.0169,-0.609598 0.3048,-1.439331 0.74507,-2.844795 0.44026,-1.405464 0.94826,-2.726261 0.11853,-0.321733 0.37253,-0.507999 0.254,-0.2032 0.5588,-0.304799 0.32174,-0.118534 0.6604,-0.1524 0.33867,-0.03387 0.62653,-0.03387 0.254,0 0.6096,0.03387 0.3556,0.03387 0.64347,0.1524 0.3048,0.101599 0.47413,0.338666 0.16933,0.220132 0.0847,0.609598 -0.28787,1.473197 -0.74507,2.895595 -0.4572,1.405464 -1.04986,2.810927 z"
         style="font-style:normal;font-variant:normal;font-weight:normal;font-stretch:normal;font-size:16.9333px;font-family:Masque;-inkscape-font-specification:Masque;fill:#000000;fill-opacity:1;stroke:#000000;stroke-width:0.165;stroke-miterlimit:4;stroke-dasharray:none;stroke-opacity:1"
         id="path1442" />
      <path
         d="m 119.00624,44.074089 q 0.54187,0 1.03293,-0.186266 0.508,-0.2032 0.94827,-0.524933 0.44026,-0.338666 0.8128,-0.761998 0.37253,-0.440266 0.67733,-0.897465 0.18626,-0.270933 0.4064,-0.829732 0.22013,-0.575732 0.4572,-1.28693 0.23706,-0.711199 0.4572,-1.507064 0.22013,-0.795865 0.38946,-1.523997 0.18627,-0.728132 0.28787,-1.320798 0.1016,-0.592665 0.1016,-0.931331 0,-0.507999 -0.18627,-0.982131 -0.18626,-0.474133 -0.52493,-0.829732 -0.57573,-0.592666 -1.33773,-0.812799 -0.74507,-0.237066 -1.55787,-0.237066 h -6.90878 l -3.70839,12.649175 z m -4.13172,-2.573862 2.23519,-7.772384 h 2.8956 q 0.23706,0 0.42333,0.118533 0.18627,0.1016 0.32173,0.287866 0.13547,0.169333 0.2032,0.389466 0.0847,0.220133 0.0847,0.423332 0,0.2032 -0.11854,0.660399 -0.10159,0.440266 -0.27093,1.015998 -0.16933,0.575732 -0.37253,1.219198 -0.2032,0.626532 -0.4064,1.202264 -0.2032,0.558799 -0.37253,0.999065 -0.16934,0.423332 -0.254,0.575732 -0.1524,0.253999 -0.3048,0.423332 -0.13547,0.169333 -0.3556,0.270933 -0.2032,0.1016 -0.52493,0.1524 -0.3048,0.03387 -0.762,0.03387 z"
         style="font-style:normal;font-variant:normal;font-weight:normal;font-stretch:normal;font-size:16.9333px;font-family:Masque;-inkscape-font-specification:Masque;fill:#000000;fill-opacity:1;stroke:#000000;stroke-width:0.165;stroke-miterlimit:4;stroke-dasharray:none;stroke-opacity:1"
         id="path1444" />
      <path
         d="m 132.36658,41.398628 v 2.675461 h 3.5052 V 31.441847 h -3.6576 q -0.11853,0 -0.42333,0.0508 -0.3048,0.0508 -0.72813,0.287866 -0.42333,0.237066 -0.93133,0.728132 -0.49107,0.474133 -1.016,1.337731 l -6.12985,10.227713 h 3.97932 l 1.524,-2.675461 z m -2.59079,-2.285996 2.65853,-4.758257 v 4.758257 z"
         style="font-style:normal;font-variant:normal;font-weight:normal;font-stretch:normal;font-size:16.9333px;font-family:Masque;-inkscape-font-specification:Masque;fill:#000000;fill-opacity:1;stroke:#000000;stroke-width:0.165;stroke-miterlimit:4;stroke-dasharray:none;stroke-opacity:1"
         id="path1446" />
      <path
         d="m 141.15497,41.026095 h -4.1656 l -0.99906,3.014127 h 4.36879 v 0.01693 h 0.0169 q 1.4732,0.01693 2.47227,-0.270933 1.01599,-0.287866 1.74413,-0.846665 0.72813,-0.575732 1.26999,-1.405464 0.5588,-0.829732 1.1176,-1.89653 0.0508,-0.101599 -0.0508,-0.135466 -0.1016,-0.0508 -0.18627,0 -0.0677,0 -0.0847,0.06773 -0.54187,0.643466 -1.59173,1.032932 l 2.72626,-9.211716 h -3.82693 z"
         style="font-style:normal;font-variant:normal;font-weight:normal;font-stretch:normal;font-size:16.9333px;font-family:Masque;-inkscape-font-specification:Masque;fill:#000000;fill-opacity:1;stroke:#000000;stroke-width:0.165;stroke-miterlimit:4;stroke-dasharray:none;stroke-opacity:1"
         id="path1448" />
      <path
         d="m 155.3112,41.398628 v 2.675461 h 3.5052 V 31.441847 h -3.6576 q -0.11853,0 -0.42333,0.0508 -0.3048,0.0508 -0.72813,0.287866 -0.42333,0.237066 -0.93133,0.728132 -0.49107,0.474133 -1.016,1.337731 l -6.12986,10.227713 h 3.97933 l 1.524,-2.675461 z m -2.59079,-2.285996 2.65853,-4.758257 v 4.758257 z"
         style="font-style:normal;font-variant:normal;font-weight:normal;font-stretch:normal;font-size:16.9333px;font-family:Masque;-inkscape-font-specification:Masque;fill:#000000;fill-opacity:1;stroke:#000000;stroke-width:0.165;stroke-miterlimit:4;stroke-dasharray:none;stroke-opacity:1"
         id="path1450" />
    </g>
    <g
       aria-label="Tehnoprodaja"
       transform="matrix(0.99558214,-0.02931497,-0.09389479,1.0072022,0,0)"
       id="text1026"
       style="font-size:16.9333px;line-height:1.25;font-family:Arial;-inkscape-font-specification:Arial;word-spacing:0px;fill:url(#linearGradient871);fill-opacity:1;stroke:#000000;stroke-width:0.165;stroke-miterlimit:4;stroke-dasharray:none;stroke-opacity:1">
      <path
         d="m 17.395448,30.447524 h -6.502387 v -0.03387 q -1.4731973,-0.01693 -2.472262,0.270933 -0.9821314,0.287866 -1.7102633,0.863598 -0.7111986,0.558799 -1.2530642,1.388531 -0.5418656,0.829731 -1.1006646,1.896529 -0.033867,0.118533 0.084666,0.1524 0.1354664,0.03387 0.2201329,-0.06773 0.2709329,-0.338666 0.5757323,-0.626532 0.3047994,-0.287866 0.8127984,-0.491066 0.5249323,-0.2032 1.3377307,-0.287866 0.8297317,-0.1016 2.1505291,-0.06773 l -2.9463942,9.635047 h 3.8269254 l 2.912528,-9.635047 h 3.149594 z"
         style="font-style:normal;font-variant:normal;font-weight:normal;font-stretch:normal;font-size:16.9333px;font-family:Masque;-inkscape-font-specification:Masque;fill:url(#linearGradient871);fill-opacity:1;stroke:#000000;stroke-width:0.165;stroke-miterlimit:4;stroke-dasharray:none;stroke-opacity:1"
         id="path1453" />
      <path
         d="m 27.132068,35.358181 q -1.456263,0 -2.336795,0 -0.863598,-0.01693 -1.354664,-0.01693 -0.474132,0 -0.694265,0.01693 -0.2032,0 -0.3556,0.01693 0.169333,-0.237066 0.287866,-0.558799 0.135467,-0.338666 0.287867,-0.643465 0.169333,-0.3048 0.389465,-0.507999 0.220133,-0.220133 0.558799,-0.220133 h 5.38479 l 0.914398,-3.031061 H 22.93261 q -1.202264,0 -2.201329,0.321733 -0.982131,0.321732 -1.79493,0.914398 -0.812798,0.575732 -1.473197,1.38853 -0.643465,0.812799 -1.151464,1.79493 -0.0508,0.1016 0.0508,0.1524 0.101599,0.03387 0.186266,-0.01693 0.03387,0 0.08467,-0.0508 0.3048,-0.321733 0.592666,-0.474133 0.304799,-0.169333 0.575732,-0.253999 0.287866,-0.08467 0.541866,-0.135467 0.270932,-0.0508 0.507999,-0.135466 -0.524933,1.185331 -0.914399,2.438395 -0.372532,1.236131 -0.609598,2.523062 -0.118533,0.643465 -0.08467,1.371597 0.0508,0.728132 0.3048,1.354664 0.253999,0.626532 0.745065,1.066798 0.507999,0.440266 1.303864,0.524932 3.555993,0.389466 7.078119,-0.152399 l 0.897465,-3.132661 q -1.405464,0.270933 -2.861728,0.321733 -1.456263,0.03387 -2.895594,-0.186266 -0.237066,-0.03387 -0.423332,-0.254 -0.186267,-0.220133 -0.1524,-0.457199 0.0508,-0.389466 0.169333,-0.778932 0.118533,-0.389466 0.2032,-0.778932 h 4.77519 z"
         style="font-style:normal;font-variant:normal;font-weight:normal;font-stretch:normal;font-size:16.9333px;font-family:Masque;-inkscape-font-specification:Masque;fill:url(#linearGradient871);fill-opacity:1;stroke:#000000;stroke-width:0.165;stroke-miterlimit:4;stroke-dasharray:none;stroke-opacity:1"
         id="path1455" />
      <path
         d="m 35.581761,43.062832 h 3.826926 l 3.826926,-12.615308 h -3.793059 l -1.117598,3.657592 h -2.760128 l 1.100664,-3.640659 h -3.776126 l -1.185331,3.860792 q -0.677332,0.1524 -1.202264,0.491066 -0.507999,0.338666 -0.948265,0.829732 -0.423332,0.491065 -0.812798,1.134531 -0.372533,0.626532 -0.778932,1.38853 -0.03387,0.118533 0.1016,0.1524 0.118533,0.03387 0.2032,-0.08467 0.423332,-0.491066 1.083731,-0.812799 0.660398,-0.321733 1.557863,-0.507999 l -1.879596,6.163721 h 3.809993 l 1.913462,-6.299187 h 2.760128 z"
         style="font-style:normal;font-variant:normal;font-weight:normal;font-stretch:normal;font-size:16.9333px;font-family:Masque;-inkscape-font-specification:Masque;fill:url(#linearGradient871);fill-opacity:1;stroke:#000000;stroke-width:0.165;stroke-miterlimit:4;stroke-dasharray:none;stroke-opacity:1"
         id="path1457" />
      <path
         d="m 51.278909,31.785254 q -0.06773,-0.304799 -0.254,-0.541865 -0.169333,-0.237067 -0.423332,-0.4064 -0.254,-0.186266 -0.558799,-0.270932 -0.3048,-0.1016 -0.609599,-0.1016 H 45.64012 l -3.793059,12.615308 h 3.742259 l 2.641595,-8.771449 1.777996,8.771449 h 4.504258 l 3.776126,-12.615308 h -3.623726 l -2.235196,7.315185 z"
         style="font-style:normal;font-variant:normal;font-weight:normal;font-stretch:normal;font-size:16.9333px;font-family:Masque;-inkscape-font-specification:Masque;fill:url(#linearGradient871);fill-opacity:1;stroke:#000000;stroke-width:0.165;stroke-miterlimit:4;stroke-dasharray:none;stroke-opacity:1"
         id="path1459" />
      <path
         d="M 71.226331,33.190718 V 32.733519 Q 71.006198,31.819121 70.396599,31.344988 69.787,30.853923 68.991135,30.63379 q -0.778932,-0.220133 -1.659463,-0.254 -0.863599,-0.03387 -1.608664,-0.03387 -1.507063,0 -2.573861,0.237066 -1.066798,0.220133 -1.777997,0.592665 -0.694265,0.3556 -1.100664,0.795866 -0.389466,0.440265 -0.558799,0.863598 -0.321733,0.778932 -0.643466,1.676397 -0.321732,0.880531 -0.609598,1.811863 -0.270933,0.931331 -0.491066,1.879596 -0.2032,0.931331 -0.287866,1.811863 -0.06773,0.761999 0.118533,1.303864 0.203199,0.524932 0.592665,0.897465 0.389466,0.355599 0.914399,0.575732 0.541865,0.2032 1.151464,0.3048 0.609599,0.118533 1.236131,0.135466 0.626532,0.03387 1.202264,0.03387 0.795865,0 1.574797,-0.06773 0.795865,-0.06773 1.59173,-0.203199 0.982132,-0.169333 1.811863,-0.761999 0.829732,-0.592665 1.253065,-1.523997 0.795865,-1.828796 1.303864,-3.691459 0.507999,-1.879596 0.795865,-3.826926 z m -5.757322,6.468521 q -0.08467,0.389466 -0.372533,0.609599 -0.287866,0.220132 -0.677332,0.321732 -0.372532,0.1016 -0.795865,0.135467 -0.406399,0.01693 -0.728132,0.01693 -0.338666,0.03387 -0.626532,-0.0508 -0.287866,-0.08467 -0.474132,-0.253999 -0.186267,-0.186267 -0.270933,-0.440266 -0.06773,-0.270933 0.01693,-0.609599 0.3048,-1.439331 0.745065,-2.844794 0.440266,-1.405464 0.948265,-2.726262 0.118533,-0.321732 0.372533,-0.507999 0.253999,-0.203199 0.558799,-0.304799 0.321732,-0.118533 0.660398,-0.1524 0.338666,-0.03387 0.626532,-0.03387 0.254,0 0.609599,0.03387 0.3556,0.03387 0.643466,0.1524 0.304799,0.1016 0.474132,0.338666 0.169333,0.220133 0.08467,0.609599 -0.287867,1.473197 -0.745066,2.895594 -0.457199,1.405464 -1.049864,2.810928 z"
         style="font-style:normal;font-variant:normal;font-weight:normal;font-stretch:normal;font-size:16.9333px;font-family:Masque;-inkscape-font-specification:Masque;fill:url(#linearGradient871);fill-opacity:1;stroke:#000000;stroke-width:0.165;stroke-miterlimit:4;stroke-dasharray:none;stroke-opacity:1"
         id="path1461" />
      <path
         d="m 79.388164,39.489906 q 0.541865,0 1.032931,-0.2032 0.507999,-0.203199 0.948265,-0.524932 0.440265,-0.338666 0.812798,-0.761999 0.372533,-0.440265 0.677332,-0.897465 0.541866,-0.846665 0.829732,-1.811863 0.287866,-0.965198 0.287866,-1.964262 0,-0.507999 -0.186266,-0.982132 -0.186267,-0.474132 -0.524933,-0.829732 -0.575732,-0.575732 -1.33773,-0.812798 -0.745066,-0.237066 -1.557864,-0.237066 h -6.417721 l -3.809992,12.615308 h 3.776126 l 1.100664,-3.589859 z m -3.606793,-2.590795 1.269997,-4.148659 h 2.353729 q 0.237066,0 0.423332,0.118533 0.186267,0.1016 0.321733,0.287867 0.135466,0.169333 0.2032,0.389465 0.08467,0.220133 0.08467,0.423333 0,0.592665 -0.220133,1.117598 -0.203199,0.524932 -0.592665,0.948265 -0.1524,0.169333 -0.3048,0.338666 -0.135466,0.152399 -0.355599,0.270932 -0.2032,0.118533 -0.507999,0.186267 -0.304799,0.06773 -0.778932,0.06773 z"
         style="font-style:normal;font-variant:normal;font-weight:normal;font-stretch:normal;font-size:16.9333px;font-family:Masque;-inkscape-font-specification:Masque;fill:url(#linearGradient871);fill-opacity:1;stroke:#000000;stroke-width:0.165;stroke-miterlimit:4;stroke-dasharray:none;stroke-opacity:1"
         id="path1463" />
      <path
         d="M 91.427707,43.079765 H 94.9837 L 93.696769,39.15124 q 0.643466,-0.338666 1.168398,-0.880532 0.541865,-0.558799 0.931331,-1.168398 0.558799,-0.846665 0.829732,-1.811863 0.287866,-0.965198 0.287866,-1.964262 0,-0.728132 -0.321733,-1.269998 -0.321732,-0.541866 -0.829731,-0.897465 -0.507999,-0.355599 -1.151465,-0.524932 -0.643465,-0.169333 -1.28693,-0.169333 H 86.940382 L 83.13039,43.079765 h 3.657593 l 1.083731,-3.589859 h 2.336795 z m -2.777061,-6.180654 1.253064,-4.148659 h 2.336795 q 0.237067,0 0.423333,0.118533 0.203199,0.1016 0.338666,0.287867 0.135466,0.169333 0.203199,0.389465 0.08467,0.220133 0.08467,0.423333 0,0.592665 -0.220133,1.117598 -0.2032,0.524932 -0.592665,0.948265 -0.1524,0.169333 -0.3048,0.338666 -0.135466,0.152399 -0.355599,0.270932 -0.2032,0.118533 -0.524932,0.186267 -0.3048,0.06773 -0.778932,0.06773 z"
         style="font-style:normal;font-variant:normal;font-weight:normal;font-stretch:normal;font-size:16.9333px;font-family:Masque;-inkscape-font-specification:Masque;fill:url(#linearGradient871);fill-opacity:1;stroke:#000000;stroke-width:0.165;stroke-miterlimit:4;stroke-dasharray:none;stroke-opacity:1"
         id="path1465" />
      <path
         d="m 110.29138,33.190718 v -0.457199 q -0.22014,-0.914398 -0.82974,-1.388531 -0.6096,-0.491065 -1.40546,-0.711198 -0.77893,-0.220133 -1.65946,-0.254 -0.8636,-0.03387 -1.60867,-0.03387 -1.50706,0 -2.57386,0.237066 -1.0668,0.220133 -1.778,0.592665 -0.694261,0.3556 -1.10066,0.795866 -0.389466,0.440265 -0.558799,0.863598 -0.321733,0.778932 -0.643465,1.676397 -0.321733,0.880531 -0.609599,1.811863 -0.270933,0.931331 -0.491066,1.879596 -0.203199,0.931331 -0.287866,1.811863 -0.06773,0.761999 0.118533,1.303864 0.2032,0.524932 0.592666,0.897465 0.389466,0.355599 0.914398,0.575732 0.541866,0.2032 1.151464,0.3048 0.609604,0.118533 1.236134,0.135466 0.62653,0.03387 1.20226,0.03387 0.79587,0 1.5748,-0.06773 0.79586,-0.06773 1.59173,-0.203199 0.98213,-0.169333 1.81186,-0.761999 0.82973,-0.592665 1.25307,-1.523997 0.79586,-1.828796 1.30386,-3.691459 0.508,-1.879596 0.79587,-3.826926 z m -5.75733,6.468521 q -0.0847,0.389466 -0.37253,0.609599 -0.28787,0.220132 -0.67733,0.321732 -0.37253,0.1016 -0.79587,0.135467 -0.4064,0.01693 -0.72813,0.01693 -0.33866,0.03387 -0.62653,-0.0508 -0.28787,-0.08467 -0.47413,-0.253999 -0.18627,-0.186267 -0.27094,-0.440266 -0.0677,-0.270933 0.0169,-0.609599 0.3048,-1.439331 0.74506,-2.844794 0.44027,-1.405464 0.94827,-2.726262 0.11853,-0.321732 0.37253,-0.507999 0.254,-0.203199 0.5588,-0.304799 0.32173,-0.118533 0.6604,-0.1524 0.33866,-0.03387 0.62653,-0.03387 0.254,0 0.6096,0.03387 0.3556,0.03387 0.64346,0.1524 0.3048,0.1016 0.47414,0.338666 0.16933,0.220133 0.0847,0.609599 -0.28786,1.473197 -0.74506,2.895594 -0.4572,1.405464 -1.04987,2.810928 z"
         style="font-style:normal;font-variant:normal;font-weight:normal;font-stretch:normal;font-size:16.9333px;font-family:Masque;-inkscape-font-specification:Masque;fill:url(#linearGradient871);fill-opacity:1;stroke:#000000;stroke-width:0.165;stroke-miterlimit:4;stroke-dasharray:none;stroke-opacity:1"
         id="path1467" />
      <path
         d="m 117.96214,43.079765 q 0.54186,0 1.03293,-0.186266 0.508,-0.2032 0.94826,-0.524932 0.44027,-0.338666 0.8128,-0.761999 0.37254,-0.440266 0.67733,-0.897465 0.18627,-0.270932 0.4064,-0.829731 0.22014,-0.575733 0.4572,-1.286931 0.23707,-0.711199 0.4572,-1.507064 0.22014,-0.795865 0.38947,-1.523997 0.18626,-0.728132 0.28786,-1.320797 0.1016,-0.592666 0.1016,-0.931332 0,-0.507999 -0.18626,-0.982131 -0.18627,-0.474133 -0.52493,-0.829732 -0.57574,-0.592665 -1.33774,-0.812798 -0.74506,-0.237066 -1.55786,-0.237066 h -6.90879 l -3.70839,12.649175 z m -4.13173,-2.573861 2.2352,-7.772385 h 2.89559 q 0.23707,0 0.42334,0.118533 0.18626,0.1016 0.32173,0.287866 0.13546,0.169333 0.2032,0.389466 0.0847,0.220133 0.0847,0.423333 0,0.203199 -0.11853,0.660398 -0.1016,0.440266 -0.27093,1.015998 -0.16933,0.575733 -0.37253,1.219198 -0.2032,0.626532 -0.4064,1.202264 -0.2032,0.558799 -0.37254,0.999065 -0.16933,0.423332 -0.254,0.575732 -0.1524,0.254 -0.30479,0.423333 -0.13547,0.169333 -0.3556,0.270932 -0.2032,0.1016 -0.52494,0.1524 -0.3048,0.03387 -0.76199,0.03387 z"
         style="font-style:normal;font-variant:normal;font-weight:normal;font-stretch:normal;font-size:16.9333px;font-family:Masque;-inkscape-font-specification:Masque;fill:url(#linearGradient871);fill-opacity:1;stroke:#000000;stroke-width:0.165;stroke-miterlimit:4;stroke-dasharray:none;stroke-opacity:1"
         id="path1469" />
      <path
         d="m 131.32248,40.404304 v 2.675461 h 3.50519 V 30.447524 h -3.65759 q -0.11853,0 -0.42333,0.0508 -0.3048,0.0508 -0.72813,0.287867 -0.42334,0.237066 -0.93133,0.728131 -0.49107,0.474133 -1.016,1.337731 l -6.12986,10.227713 h 3.97933 l 1.52399,-2.675461 z m -2.59079,-2.285996 2.65852,-4.758257 v 4.758257 z"
         style="font-style:normal;font-variant:normal;font-weight:normal;font-stretch:normal;font-size:16.9333px;font-family:Masque;-inkscape-font-specification:Masque;fill:url(#linearGradient871);fill-opacity:1;stroke:#000000;stroke-width:0.165;stroke-miterlimit:4;stroke-dasharray:none;stroke-opacity:1"
         id="path1471" />
      <path
         d="m 140.11086,40.031771 h -4.16559 l -0.99906,3.014128 h 4.36879 v 0.01693 h 0.0169 q 1.4732,0.01693 2.47226,-0.270933 1.016,-0.287866 1.74413,-0.846665 0.72813,-0.575732 1.27,-1.405464 0.5588,-0.829731 1.1176,-1.896529 0.0508,-0.1016 -0.0508,-0.135467 -0.1016,-0.0508 -0.18627,0 -0.0677,0 -0.0847,0.06773 -0.54186,0.643465 -1.59173,1.032931 l 2.72627,-9.211715 h -3.82693 z"
         style="font-style:normal;font-variant:normal;font-weight:normal;font-stretch:normal;font-size:16.9333px;font-family:Masque;-inkscape-font-specification:Masque;fill:url(#linearGradient871);fill-opacity:1;stroke:#000000;stroke-width:0.165;stroke-miterlimit:4;stroke-dasharray:none;stroke-opacity:1"
         id="path1473" />
      <path
         d="m 154.2671,40.404304 v 2.675461 h 3.50519 V 30.447524 h -3.65759 q -0.11853,0 -0.42333,0.0508 -0.3048,0.0508 -0.72814,0.287867 -0.42333,0.237066 -0.93133,0.728131 -0.49106,0.474133 -1.01599,1.337731 l -6.12986,10.227713 h 3.97933 l 1.52399,-2.675461 z m -2.5908,-2.285996 2.65853,-4.758257 v 4.758257 z"
         style="font-style:normal;font-variant:normal;font-weight:normal;font-stretch:normal;font-size:16.9333px;font-family:Masque;-inkscape-font-specification:Masque;fill:url(#linearGradient871);fill-opacity:1;stroke:#000000;stroke-width:0.165;stroke-miterlimit:4;stroke-dasharray:none;stroke-opacity:1"
         id="path1475" />
    </g>
  </g>
</svg>
