<?xml version="1.0" encoding="UTF-8" standalone="no"?>
<svg
   xmlns:dc="http://purl.org/dc/elements/1.1/"
   xmlns:cc="http://creativecommons.org/ns#"
   xmlns:rdf="http://www.w3.org/1999/02/22-rdf-syntax-ns#"
   xmlns:svg="http://www.w3.org/2000/svg"
   xmlns="http://www.w3.org/2000/svg"
   xmlns:xlink="http://www.w3.org/1999/xlink"
   xmlns:sodipodi="http://sodipodi.sourceforge.net/DTD/sodipodi-0.dtd"
   xmlns:inkscape="http://www.inkscape.org/namespaces/inkscape"
   width="99mm"
   height="62mm"
   viewBox="0 0 99 62"
   version="1.1"
   id="svg8"
   inkscape:version="1.0.1 (3bc2e813f5, 2020-09-07)"
   sodipodi:docname="tehnoprodaja_icon.svg">
  <defs
     id="defs2">
    <linearGradient
       inkscape:collect="always"
       id="linearGradient869">
      <stop
         style="stop-color:#ff9700;stop-opacity:1;"
         offset="0"
         id="stop865" />
      <stop
         style="stop-color:#ff2f00;stop-opacity:1"
         offset="1"
         id="stop867" />
    </linearGradient>
    <linearGradient
       inkscape:collect="always"
       id="linearGradient1020">
      <stop
         style="stop-color:#2b2b2b;stop-opacity:1"
         offset="0"
         id="stop1016" />
      <stop
         style="stop-color:#b4b4b4;stop-opacity:1"
         offset="1"
         id="stop1018" />
    </linearGradient>
    <inkscape:path-effect
       effect="fillet_chamfer"
       id="path-effect951"
       is_visible="true"
       lpeversion="1"
       satellites_param="F,0,0,1,0,0,0,1 @ F,0,0,1,0,3.1412522,0,1 @ F,0,0,1,0,2.0651758,0,1 @ F,0,0,1,0,3.0790524,0,1"
       unit="px"
       method="auto"
       mode="F"
       radius="0"
       chamfer_steps="1"
       flexible="false"
       use_knot_distance="true"
       apply_no_radius="true"
       apply_with_radius="true"
       only_selected="false"
       hide_knots="false" />
    <linearGradient
       inkscape:collect="always"
       id="linearGradient945">
      <stop
         style="stop-color:#81f2ff;stop-opacity:1"
         offset="0"
         id="stop941" />
      <stop
         style="stop-color:#5793ff;stop-opacity:1"
         offset="1"
         id="stop943" />
    </linearGradient>
    <linearGradient
       inkscape:collect="always"
       xlink:href="#linearGradient945"
       id="linearGradient947"
       x1="28.614277"
       y1="55.758957"
       x2="126.7357"
       y2="56.892887"
       gradientUnits="userSpaceOnUse"
       gradientTransform="translate(-17.084522,-23.982588)" />
    <linearGradient
       inkscape:collect="always"
       xlink:href="#linearGradient945"
       id="linearGradient961"
       x1="18.199198"
       y1="30.703934"
       x2="87.789612"
       y2="31.100809"
       gradientUnits="userSpaceOnUse"
       gradientTransform="translate(-17.462499,-23.415624)" />
    <linearGradient
       inkscape:collect="always"
       xlink:href="#linearGradient945"
       id="linearGradient975"
       x1="45.275833"
       y1="80.1026"
       x2="55.165623"
       y2="80.09948"
       gradientUnits="userSpaceOnUse"
       gradientTransform="translate(-14.552082,-26.855207)" />
    <linearGradient
       inkscape:collect="always"
       xlink:href="#linearGradient945"
       id="linearGradient975-5"
       x1="45.275833"
       y1="80.1026"
       x2="55.165623"
       y2="80.09948"
       gradientUnits="userSpaceOnUse"
       gradientTransform="translate(16.602605,-23.878642)" />
    <linearGradient
       inkscape:collect="always"
       xlink:href="#linearGradient1020"
       id="linearGradient1022"
       x1="49.10648"
       y1="29.851919"
       x2="81.502365"
       y2="29.322752"
       gradientUnits="userSpaceOnUse"
       gradientTransform="translate(-17.462499,-23.415624)" />
    <linearGradient
       inkscape:collect="always"
       xlink:href="#linearGradient869"
       id="linearGradient871"
       x1="44.053928"
       y1="57.711018"
       x2="198.88391"
       y2="58.540043"
       gradientUnits="userSpaceOnUse"
       gradientTransform="translate(-39.70465,-20.85747)" />
    <linearGradient
       inkscape:collect="always"
       xlink:href="#linearGradient869"
       id="linearGradient871-8"
       x1="44.053928"
       y1="57.711018"
       x2="198.88391"
       y2="58.540043"
       gradientUnits="userSpaceOnUse"
       gradientTransform="translate(-26.2326,6.2423234)" />
    <linearGradient
       inkscape:collect="always"
       xlink:href="#linearGradient869"
       id="linearGradient898"
       gradientUnits="userSpaceOnUse"
       gradientTransform="translate(-107.80632,-6.0580936)"
       x1="44.053928"
       y1="57.711018"
       x2="198.88391"
       y2="58.540043" />
    <linearGradient
       inkscape:collect="always"
       xlink:href="#linearGradient869"
       id="linearGradient900"
       gradientUnits="userSpaceOnUse"
       gradientTransform="translate(-107.80632,-6.0580936)"
       x1="44.053928"
       y1="57.711018"
       x2="198.88391"
       y2="58.540043" />
    <linearGradient
       inkscape:collect="always"
       xlink:href="#linearGradient869"
       id="linearGradient902"
       gradientUnits="userSpaceOnUse"
       gradientTransform="translate(-107.80632,-6.0580936)"
       x1="44.053928"
       y1="57.711018"
       x2="198.88391"
       y2="58.540043" />
    <linearGradient
       inkscape:collect="always"
       xlink:href="#linearGradient869"
       id="linearGradient904"
       gradientUnits="userSpaceOnUse"
       gradientTransform="translate(-107.80632,-6.0580936)"
       x1="44.053928"
       y1="57.711018"
       x2="198.88391"
       y2="58.540043" />
    <linearGradient
       inkscape:collect="always"
       xlink:href="#linearGradient869"
       id="linearGradient906"
       gradientUnits="userSpaceOnUse"
       gradientTransform="translate(-107.80632,-6.0580936)"
       x1="44.053928"
       y1="57.711018"
       x2="198.88391"
       y2="58.540043" />
    <linearGradient
       inkscape:collect="always"
       xlink:href="#linearGradient869"
       id="linearGradient908"
       gradientUnits="userSpaceOnUse"
       gradientTransform="translate(-107.80632,-6.0580936)"
       x1="44.053928"
       y1="57.711018"
       x2="198.88391"
       y2="58.540043" />
    <linearGradient
       inkscape:collect="always"
       xlink:href="#linearGradient869"
       id="linearGradient910"
       gradientUnits="userSpaceOnUse"
       gradientTransform="translate(-107.80632,-6.0580936)"
       x1="44.053928"
       y1="57.711018"
       x2="198.88391"
       y2="58.540043" />
    <linearGradient
       inkscape:collect="always"
       xlink:href="#linearGradient869"
       id="linearGradient932"
       gradientUnits="userSpaceOnUse"
       gradientTransform="translate(-39.70465,-20.85747)"
       x1="44.053928"
       y1="57.711018"
       x2="198.88391"
       y2="58.540043" />
    <linearGradient
       inkscape:collect="always"
       xlink:href="#linearGradient869"
       id="linearGradient934"
       gradientUnits="userSpaceOnUse"
       gradientTransform="translate(-39.70465,-20.85747)"
       x1="44.053928"
       y1="57.711018"
       x2="198.88391"
       y2="58.540043" />
    <linearGradient
       inkscape:collect="always"
       xlink:href="#linearGradient869"
       id="linearGradient936"
       gradientUnits="userSpaceOnUse"
       gradientTransform="translate(-39.70465,-20.85747)"
       x1="44.053928"
       y1="57.711018"
       x2="198.88391"
       y2="58.540043" />
    <linearGradient
       inkscape:collect="always"
       xlink:href="#linearGradient869"
       id="linearGradient938"
       gradientUnits="userSpaceOnUse"
       gradientTransform="translate(-39.70465,-20.85747)"
       x1="44.053928"
       y1="57.711018"
       x2="198.88391"
       y2="58.540043" />
    <linearGradient
       inkscape:collect="always"
       xlink:href="#linearGradient869"
       id="linearGradient940"
       gradientUnits="userSpaceOnUse"
       gradientTransform="translate(-39.70465,-20.85747)"
       x1="44.053928"
       y1="57.711018"
       x2="198.88391"
       y2="58.540043" />
  </defs>
  <sodipodi:namedview
     id="base"
     pagecolor="#ffffff"
     bordercolor="#666666"
     borderopacity="1.0"
     inkscape:pageopacity="0.0"
     inkscape:pageshadow="2"
     inkscape:zoom="2.0000001"
     inkscape:cx="251.62411"
     inkscape:cy="158.70258"
     inkscape:document-units="mm"
     inkscape:current-layer="layer1"
     inkscape:document-rotation="0"
     showgrid="false"
     inkscape:window-width="1920"
     inkscape:window-height="1009"
     inkscape:window-x="1912"
     inkscape:window-y="-8"
     inkscape:window-maximized="1" />
  <metadata
     id="metadata5">
    <rdf:RDF>
      <cc:Work
         rdf:about="">
        <dc:format>image/svg+xml</dc:format>
        <dc:type
           rdf:resource="http://purl.org/dc/dcmitype/StillImage" />
        <dc:title></dc:title>
      </cc:Work>
    </rdf:RDF>
  </metadata>
  <g
     inkscape:label="Layer 1"
     inkscape:groupmode="layer"
     id="layer1">
    <path
       style="fill:url(#linearGradient947);fill-opacity:1;stroke:#000000;stroke-width:0.465;stroke-linecap:butt;stroke-linejoin:miter;stroke-miterlimit:4;stroke-dasharray:none;stroke-opacity:1"
       d="m 11.830656,11.736161 83.604409,0.72858 a 2.4291851,2.4291851 0 0 1 2.32449,3.060617 l -9.2298,34.282112 a 2.4450238,2.4450238 0 0 1 -2.59276,1.798369 L 23.58929,45.667964 a 4.3916378,4.3916378 0 0 1 -3.835583,-3.273037 z"
       id="path847" />
    <path
       style="fill:url(#linearGradient961);fill-opacity:1;stroke:#000000;stroke-width:0.465;stroke-linecap:butt;stroke-linejoin:miter;stroke-miterlimit:4;stroke-dasharray:none;stroke-opacity:1"
       d="m 11.830656,11.736161 -0.09202,-0.33882 -1.137832,-4.8787769 -8.5526264,-0.53454 -0.989842,-3.130303 13.7016364,0.566964 1.319855,8.3096339 z"
       id="path953"
       sodipodi:nodetypes="cccccccc" />
    <path
       id="path967"
       style="opacity:1;fill:url(#linearGradient975);fill-opacity:1;stroke:#000000;stroke-width:0.465;stroke-miterlimit:4;stroke-dasharray:none"
       d="m 40.613542,53.247397 a 4.8286457,4.8286457 0 0 1 -4.827866,4.828645 4.8286457,4.8286457 0 0 1 -4.829425,-4.827086 4.8286457,4.8286457 0 0 1 4.826307,-4.830204 4.8286457,4.8286457 0 0 1 4.830983,4.825526" />
    <path
       id="path967-0"
       style="opacity:1;fill:url(#linearGradient975-5);fill-opacity:1;stroke:#000000;stroke-width:0.465;stroke-miterlimit:4;stroke-dasharray:none"
       d="m 71.768232,56.223959 a 4.8286457,4.8286457 0 0 1 -4.827866,4.828646 4.8286457,4.8286457 0 0 1 -4.829425,-4.827087 4.8286457,4.8286457 0 0 1 4.826307,-4.830204 4.8286457,4.8286457 0 0 1 4.830983,4.825527" />
    <path
       style="fill:url(#linearGradient1022);fill-opacity:1;stroke:#000000;stroke-width:0.465;stroke-linecap:butt;stroke-linejoin:miter;stroke-miterlimit:4;stroke-dasharray:none;stroke-opacity:1"
       d="m 33.144984,11.897361 2.245067,-2.7595569 -3.414369,-2.712786 1.964431,-2.338607 3.554685,2.993416 3.461139,-1.870884 -0.608039,-3.975635 3.086965,-0.46772208 0.701582,3.83531808 3.648229,1.169305 1.870887,-3.928863 2.712786,1.30962 -1.777344,3.507912 2.33861,2.291837 2.946646,-2.478924 2.011204,2.61924 -3.367599,2.3853799 0.795129,0.654812 z"
       id="path1014" />
    <g
       aria-label="Tehnoprodaja"
       transform="matrix(0.99558214,-0.02931497,-0.09389479,1.0072022,-25.929165,0.13229166)"
       id="text1026-5"
       style="font-size:16.9333px;line-height:1.25;font-family:Arial;-inkscape-font-specification:Arial;word-spacing:0px;opacity:0.848387;fill:#000000;fill-opacity:1;stroke:#000000;stroke-width:0.165;stroke-miterlimit:4;stroke-dasharray:none;stroke-opacity:1">
      <path
         d="m 62.266842,19.654993 h -5.355599 v -0.0279 q -1.213378,-0.01394 -2.036243,0.223149 -0.808919,0.237098 -1.408634,0.711291 -0.585769,0.460247 -1.032068,1.143643 -0.446301,0.683397 -0.906547,1.56205 -0.0279,0.09763 0.06974,0.125522 0.111575,0.0279 0.181309,-0.05579 0.22315,-0.278937 0.474194,-0.516034 0.251044,-0.237096 0.66945,-0.404458 0.432353,-0.167363 1.101802,-0.237097 0.683397,-0.08368 1.771253,-0.05579 l -2.426756,7.93577 h 3.151993 l 2.398862,-7.93577 h 2.594118 z"
         style="font-style:normal;font-variant:normal;font-weight:normal;font-stretch:normal;font-size:16.9333px;font-family:Masque;-inkscape-font-specification:Masque;fill:#000000;fill-opacity:1;stroke:#000000;stroke-width:0.1359;stroke-miterlimit:4;stroke-dasharray:none;stroke-opacity:1"
         id="path1428" />
      <path
         d="m 70.28627,23.699585 q -1.199431,0 -1.924668,0 -0.711291,-0.01394 -1.11575,-0.01394 -0.390513,0 -0.571822,0.01394 -0.167362,0 -0.292884,0.01394 0.139469,-0.195257 0.237097,-0.460246 0.111575,-0.278938 0.237096,-0.529982 0.139469,-0.251043 0.320779,-0.418406 0.181309,-0.18131 0.460246,-0.18131 h 4.435105 l 0.753132,-2.496489 h -5.997155 q -0.990228,0 -1.813093,0.26499 -0.808919,0.264991 -1.478368,0.753132 -0.669451,0.474193 -1.213378,1.143643 -0.529982,0.66945 -0.948388,1.478368 -0.04184,0.08368 0.04184,0.125522 0.08368,0.0279 0.153416,-0.01394 0.0279,0 0.06974,-0.04184 0.251044,-0.26499 0.488141,-0.390512 0.251044,-0.139468 0.474194,-0.209202 0.237096,-0.06974 0.446299,-0.111576 0.22315,-0.04184 0.418406,-0.111574 -0.432353,0.976281 -0.753131,2.008349 -0.30683,1.018121 -0.502087,2.078084 -0.09763,0.529981 -0.06974,1.129696 0.04184,0.599716 0.251044,1.11575 0.209203,0.516034 0.613662,0.878653 0.418406,0.362618 1.07391,0.432352 2.928843,0.320778 5.829791,-0.125522 l 0.739185,-2.58017 q -1.157591,0.22315 -2.357022,0.26499 -1.199431,0.0279 -2.384914,-0.153416 -0.195256,-0.0279 -0.348673,-0.209202 -0.153415,-0.18131 -0.125521,-0.376566 0.04184,-0.320778 0.139469,-0.641556 0.09763,-0.320778 0.167362,-0.641556 h 3.933018 z"
         style="font-style:normal;font-variant:normal;font-weight:normal;font-stretch:normal;font-size:16.9333px;font-family:Masque;-inkscape-font-specification:Masque;fill:#000000;fill-opacity:1;stroke:#000000;stroke-width:0.1359;stroke-miterlimit:4;stroke-dasharray:none;stroke-opacity:1"
         id="path1430" />
      <path
         d="m 77.245739,30.045412 h 3.151993 l 3.151992,-10.390419 h -3.124099 l -0.920494,3.012524 h -2.273339 l 0.906546,-2.998577 h -3.110152 l -0.976281,3.179886 q -0.557875,0.125522 -0.990227,0.40446 -0.418407,0.278937 -0.781025,0.683396 -0.348672,0.404459 -0.66945,0.93444 -0.306831,0.516035 -0.641556,1.143644 -0.0279,0.09763 0.08368,0.125522 0.09763,0.0279 0.167362,-0.06974 0.348672,-0.404459 0.8926,-0.66945 0.543928,-0.264991 1.283112,-0.418406 l -1.548102,5.076661 h 3.138045 l 1.575997,-5.188236 h 2.27334 z"
         style="font-style:normal;font-variant:normal;font-weight:normal;font-stretch:normal;font-size:16.9333px;font-family:Masque;-inkscape-font-specification:Masque;fill:#000000;fill-opacity:1;stroke:#000000;stroke-width:0.1359;stroke-miterlimit:4;stroke-dasharray:none;stroke-opacity:1"
         id="path1432" />
      <path
         d="m 90.174469,20.756796 q -0.0558,-0.251044 -0.2092,-0.4463 -0.13947,-0.195257 -0.34867,-0.334725 -0.20921,-0.153416 -0.46025,-0.22315 -0.25104,-0.08368 -0.50209,-0.08368 h -3.124097 l -3.124099,10.390418 h 3.082259 l 2.175707,-7.224478 1.46443,7.224478 h 3.70986 l 3.11015,-10.390418 h -2.98463 l -1.84098,6.025048 z"
         style="font-style:normal;font-variant:normal;font-weight:normal;font-stretch:normal;font-size:16.9333px;font-family:Masque;-inkscape-font-specification:Masque;fill:#000000;fill-opacity:1;stroke:#000000;stroke-width:0.1359;stroke-miterlimit:4;stroke-dasharray:none;stroke-opacity:1"
         id="path1434" />
      <path
         d="m 106.60388,21.914386 v -0.376565 q -0.18131,-0.753131 -0.68339,-1.143644 -0.50209,-0.40446 -1.1576,-0.585768 -0.64155,-0.18131 -1.36679,-0.209204 -0.71129,-0.0279 -1.32496,-0.0279 -1.24127,0 -2.119921,0.195257 -0.87865,0.181309 -1.46442,0.48814 -0.57182,0.292884 -0.90655,0.655503 -0.32077,0.362618 -0.46024,0.711291 -0.26499,0.641555 -0.52998,1.380739 -0.265,0.725238 -0.50209,1.492315 -0.22315,0.767079 -0.40446,1.548103 -0.16737,0.767078 -0.23709,1.492316 -0.0558,0.627608 0.0976,1.073908 0.16736,0.432353 0.48815,0.739185 0.32077,0.292884 0.75312,0.474193 0.4463,0.167363 0.94839,0.251043 0.50209,0.09763 1.01812,0.111576 0.51603,0.0279 0.99023,0.0279 0.655501,0 1.297061,-0.05578 0.65551,-0.05579 1.311,-0.167362 0.80892,-0.139469 1.49232,-0.62761 0.6834,-0.48814 1.03207,-1.255218 0.6555,-1.506262 1.07391,-3.040418 0.4184,-1.548103 0.6555,-3.151993 z m -4.74194,5.327704 q -0.0698,0.320778 -0.30683,0.502088 -0.23709,0.181309 -0.55787,0.26499 -0.30683,0.08368 -0.6555,0.111575 -0.33473,0.01394 -0.599721,0.01394 -0.27894,0.0279 -0.51604,-0.04184 -0.23709,-0.06974 -0.39051,-0.209204 -0.15341,-0.153415 -0.22314,-0.362619 -0.0558,-0.223149 0.0139,-0.502086 0.25103,-1.185485 0.61365,-2.343075 0.36263,-1.157591 0.781031,-2.245446 0.0976,-0.264991 0.30683,-0.418406 0.20921,-0.167363 0.46025,-0.251044 0.26499,-0.09763 0.54393,-0.125522 0.27893,-0.0279 0.51603,-0.0279 0.2092,0 0.50209,0.0279 0.29288,0.0279 0.52998,0.125522 0.25104,0.08368 0.39051,0.278938 0.13947,0.181308 0.0698,0.502087 -0.23709,1.213377 -0.61366,2.384915 -0.37657,1.15759 -0.86471,2.31518 z"
         style="font-style:normal;font-variant:normal;font-weight:normal;font-stretch:normal;font-size:16.9333px;font-family:Masque;-inkscape-font-specification:Masque;fill:#000000;fill-opacity:1;stroke:#000000;stroke-width:0.1359;stroke-miterlimit:4;stroke-dasharray:none;stroke-opacity:1"
         id="path1436" />
      <path
         d="m 57.235291,39.291916 q 0.4463,0 0.850759,-0.167362 0.418406,-0.167363 0.781025,-0.432353 0.362618,-0.278937 0.66945,-0.627609 0.306831,-0.362619 0.557875,-0.739184 0.446299,-0.697344 0.683396,-1.492316 0.237096,-0.794971 0.237096,-1.617837 0,-0.418406 -0.153415,-0.808918 -0.153415,-0.390513 -0.432353,-0.683397 -0.474193,-0.474193 -1.101803,-0.669449 -0.613662,-0.195256 -1.283111,-0.195256 h -5.285865 l -3.138047,10.390418 h 3.110153 l 0.906547,-2.956737 z m -2.970685,-2.13387 1.046016,-3.416984 h 1.938615 q 0.195257,0 0.348673,0.09763 0.153415,0.08368 0.26499,0.237097 0.111575,0.139468 0.167362,0.320778 0.06974,0.181309 0.06974,0.348672 0,0.48814 -0.18131,0.920493 -0.167363,0.432353 -0.488141,0.781025 -0.125521,0.139468 -0.251043,0.278937 -0.111575,0.125522 -0.292884,0.22315 -0.167363,0.09763 -0.418406,0.153415 -0.251044,0.05579 -0.641556,0.05579 z"
         style="font-style:normal;font-variant:normal;font-weight:normal;font-stretch:normal;font-size:16.9333px;font-family:Masque;-inkscape-font-specification:Masque;fill:#000000;fill-opacity:1;stroke:#000000;stroke-width:0.1359;stroke-miterlimit:4;stroke-dasharray:none;stroke-opacity:1"
         id="path1438" />
      <path
         d="m 67.151489,42.248653 h 2.928843 L 69.02037,39.012979 q 0.52998,-0.278938 0.962334,-0.725237 0.446299,-0.460247 0.767077,-0.962334 0.460247,-0.697344 0.683397,-1.492316 0.237097,-0.794971 0.237097,-1.617837 0,-0.599715 -0.264991,-1.046015 -0.26499,-0.4463 -0.683397,-0.739184 -0.418406,-0.292884 -0.948386,-0.432353 -0.529981,-0.139468 -1.059963,-0.139468 h -5.25797 l -3.138045,10.390418 h 3.012523 l 0.8926,-2.956737 h 1.924668 z m -2.287287,-5.090607 1.032069,-3.416984 h 1.924668 q 0.195256,0 0.348672,0.09763 0.167362,0.08368 0.278937,0.237097 0.111575,0.139468 0.167362,0.320778 0.06974,0.181309 0.06974,0.348672 0,0.48814 -0.181309,0.920493 -0.167363,0.432353 -0.488141,0.781025 -0.125521,0.139468 -0.251043,0.278937 -0.111576,0.125522 -0.292884,0.22315 -0.167363,0.09763 -0.432354,0.153415 -0.251043,0.05579 -0.641556,0.05579 z"
         style="font-style:normal;font-variant:normal;font-weight:normal;font-stretch:normal;font-size:16.9333px;font-family:Masque;-inkscape-font-specification:Masque;fill:#000000;fill-opacity:1;stroke:#000000;stroke-width:0.1359;stroke-miterlimit:4;stroke-dasharray:none;stroke-opacity:1"
         id="path1440" />
      <path
         d="M 82.688281,34.103681 V 33.727115 Q 82.506974,32.973984 82.004885,32.583472 81.502797,32.179012 80.84729,31.997703 80.205736,31.816394 79.4805,31.7885 q -0.711292,-0.0279 -1.32495,-0.0279 -1.241277,0 -2.119931,0.195257 -0.878647,0.18131 -1.464417,0.48814 -0.571825,0.292884 -0.906551,0.655503 -0.320774,0.362619 -0.460243,0.711291 -0.264991,0.641556 -0.529982,1.38074 -0.26499,0.725237 -0.502086,1.492315 -0.223151,0.767078 -0.40446,1.548103 -0.167363,0.767078 -0.237097,1.492315 -0.05578,0.627609 0.09763,1.073909 0.167362,0.432353 0.48814,0.739184 0.320779,0.292884 0.753132,0.474194 0.446299,0.167363 0.948387,0.251043 0.502088,0.09763 1.018121,0.111576 0.516032,0.0279 0.990232,0.0279 0.655499,0 1.297054,-0.05579 0.655507,-0.05579 1.311005,-0.167362 0.808918,-0.139468 1.492321,-0.627609 0.683395,-0.48814 1.032065,-1.255219 0.655499,-1.506261 1.073906,-3.040417 0.418407,-1.548103 0.655507,-3.151993 z m -4.741935,5.327704 q -0.06976,0.320778 -0.306837,0.502087 -0.237092,0.18131 -0.557873,0.264991 -0.306829,0.08368 -0.655499,0.111575 -0.334725,0.01394 -0.599714,0.01394 -0.27894,0.0279 -0.51604,-0.04184 -0.237092,-0.06974 -0.390511,-0.209203 -0.153418,-0.153416 -0.223147,-0.362619 -0.05576,-0.223149 0.01392,-0.502087 0.251044,-1.185484 0.613666,-2.343075 0.362614,-1.15759 0.781021,-2.245445 0.09763,-0.264991 0.306829,-0.418407 0.209204,-0.167362 0.460248,-0.251043 0.264996,-0.09763 0.543929,-0.125522 0.27894,-0.0279 0.516032,-0.0279 0.209204,0 0.502089,0.0279 0.292884,0.0279 0.529984,0.125522 0.251045,0.08368 0.390511,0.278937 0.139466,0.181309 0.06976,0.502087 -0.2371,1.213378 -0.613666,2.384916 -0.376567,1.15759 -0.864703,2.315179 z"
         style="font-style:normal;font-variant:normal;font-weight:normal;font-stretch:normal;font-size:16.9333px;font-family:Masque;-inkscape-font-specification:Masque;fill:#000000;fill-opacity:1;stroke:#000000;stroke-width:0.1359;stroke-miterlimit:4;stroke-dasharray:none;stroke-opacity:1"
         id="path1442" />
      <path
         d="m 89.006189,42.248653 q 0.44631,0 0.85076,-0.153415 0.41841,-0.167363 0.78103,-0.432354 0.36261,-0.278937 0.66945,-0.627609 0.30683,-0.362619 0.55787,-0.739184 0.15342,-0.22315 0.33473,-0.683397 0.18131,-0.474193 0.37657,-1.059961 0.19525,-0.585769 0.37656,-1.241272 0.18131,-0.655503 0.32078,-1.255218 0.15342,-0.599716 0.2371,-1.087857 0.0837,-0.48814 0.0837,-0.767077 0,-0.418406 -0.15342,-0.808918 -0.15341,-0.390513 -0.43235,-0.683397 -0.47419,-0.488141 -1.1018,-0.669451 -0.61367,-0.195256 -1.28312,-0.195256 h -5.69032 L 81.879367,42.2626 Z m -3.403029,-2.119925 1.840979,-6.401613 h 2.38492 q 0.19525,0 0.34867,0.09763 0.15342,0.08368 0.26499,0.237097 0.11158,0.139469 0.16736,0.320778 0.0698,0.181309 0.0698,0.348671 0,0.167363 -0.0976,0.543929 -0.0837,0.362618 -0.22315,0.836812 -0.13946,0.474193 -0.30682,1.004175 -0.16737,0.516034 -0.33473,0.990227 -0.16736,0.460247 -0.30683,0.822866 -0.13947,0.348671 -0.2092,0.474194 -0.12552,0.209202 -0.25105,0.348671 -0.11157,0.139469 -0.29288,0.22315 -0.16736,0.08368 -0.43235,0.125522 -0.25105,0.0279 -0.62761,0.0279 z"
         style="font-style:normal;font-variant:normal;font-weight:normal;font-stretch:normal;font-size:16.9333px;font-family:Masque;-inkscape-font-specification:Masque;fill:#000000;fill-opacity:1;stroke:#000000;stroke-width:0.1359;stroke-miterlimit:4;stroke-dasharray:none;stroke-opacity:1"
         id="path1444" />
      <path
         d="m 100.01025,40.045048 v 2.203605 h 2.88701 V 31.844287 h -3.012531 q -0.0976,0 -0.34867,0.04184 -0.25105,0.04184 -0.59972,0.237097 -0.34867,0.195256 -0.76707,0.599715 -0.40447,0.390513 -0.83682,1.101803 l -5.04876,8.42391 h 3.27751 l 1.25522,-2.203605 z m -2.133871,-1.882828 2.189661,-3.919071 v 3.919071 z"
         style="font-style:normal;font-variant:normal;font-weight:normal;font-stretch:normal;font-size:16.9333px;font-family:Masque;-inkscape-font-specification:Masque;fill:#000000;fill-opacity:1;stroke:#000000;stroke-width:0.1359;stroke-miterlimit:4;stroke-dasharray:none;stroke-opacity:1"
         id="path1446" />
      <path
         d="m 107.24868,39.738216 h -3.43094 l -0.82286,2.482543 h 3.59829 v 0.01394 h 0.0139 q 1.21338,0.01394 2.03625,-0.22315 0.83681,-0.237097 1.43653,-0.697344 0.59972,-0.474193 1.04601,-1.15759 0.46025,-0.683397 0.9205,-1.56205 0.0418,-0.08368 -0.0418,-0.111574 -0.0837,-0.04184 -0.15342,0 -0.0558,0 -0.0698,0.05578 -0.44631,0.529982 -1.31101,0.85076 l 2.24544,-7.587098 h -3.15199 z"
         style="font-style:normal;font-variant:normal;font-weight:normal;font-stretch:normal;font-size:16.9333px;font-family:Masque;-inkscape-font-specification:Masque;fill:#000000;fill-opacity:1;stroke:#000000;stroke-width:0.1359;stroke-miterlimit:4;stroke-dasharray:none;stroke-opacity:1"
         id="path1448" />
      <path
         d="m 118.90826,40.045048 v 2.203605 h 2.887 V 31.844287 h -3.01252 q -0.0976,0 -0.34867,0.04184 -0.25105,0.04184 -0.59972,0.237097 -0.34867,0.195256 -0.76707,0.599715 -0.40447,0.390513 -0.83682,1.101803 l -5.04877,8.42391 h 3.27752 l 1.25522,-2.203605 z m -2.13387,-1.882828 2.18966,-3.919071 v 3.919071 z"
         style="font-style:normal;font-variant:normal;font-weight:normal;font-stretch:normal;font-size:16.9333px;font-family:Masque;-inkscape-font-specification:Masque;fill:#000000;fill-opacity:1;stroke:#000000;stroke-width:0.1359;stroke-miterlimit:4;stroke-dasharray:none;stroke-opacity:1"
         id="path1450" />
    </g>
    <g
       aria-label="Tehnoprodaja"
       transform="matrix(0.81999701,-0.02414486,-0.0773351,0.8295677,21.528269,-7.5344283)"
       id="text1026"
       style="font-size:16.9333px;line-height:1.25;font-family:Arial;-inkscape-font-specification:Arial;word-spacing:0px;fill:url(#linearGradient871);fill-opacity:1;stroke:#000000;stroke-width:0.165;stroke-miterlimit:4;stroke-dasharray:none;stroke-opacity:1">
      <path
         d="m 17.395448,30.447524 h -6.502387 v -0.03387 q -1.4731973,-0.01693 -2.472262,0.270933 -0.9821314,0.287866 -1.7102633,0.863598 -0.7111986,0.558799 -1.2530642,1.388531 -0.5418656,0.829731 -1.1006646,1.896529 -0.033867,0.118533 0.084666,0.1524 0.1354664,0.03387 0.2201329,-0.06773 0.2709329,-0.338666 0.5757323,-0.626532 0.3047994,-0.287866 0.8127984,-0.491066 0.5249323,-0.2032 1.3377307,-0.287866 0.8297317,-0.1016 2.1505291,-0.06773 l -2.9463942,9.635047 h 3.8269249 l 2.912528,-9.635047 h 3.149594 z"
         style="font-style:normal;font-variant:normal;font-weight:normal;font-stretch:normal;font-size:16.9333px;font-family:Masque;-inkscape-font-specification:Masque;fill:url(#linearGradient932);fill-opacity:1;stroke:#000000;stroke-width:0.165;stroke-miterlimit:4;stroke-dasharray:none;stroke-opacity:1"
         id="path1453" />
      <path
         d="m 27.132068,35.358181 q -1.456263,0 -2.336795,0 -0.863598,-0.01693 -1.354664,-0.01693 -0.474132,0 -0.694265,0.01693 -0.2032,0 -0.3556,0.01693 0.169333,-0.237066 0.287866,-0.558799 0.135467,-0.338666 0.287867,-0.643465 0.169333,-0.3048 0.389465,-0.507999 0.220133,-0.220133 0.558799,-0.220133 h 5.38479 l 0.914398,-3.031061 H 22.93261 q -1.202264,0 -2.201329,0.321733 -0.982131,0.321732 -1.79493,0.914398 -0.812798,0.575732 -1.473197,1.38853 -0.643465,0.812799 -1.151464,1.79493 -0.0508,0.1016 0.0508,0.1524 0.101599,0.03387 0.186266,-0.01693 0.03387,0 0.08467,-0.0508 0.3048,-0.321733 0.592666,-0.474133 0.304799,-0.169333 0.575732,-0.253999 0.287866,-0.08467 0.541866,-0.135467 0.270932,-0.0508 0.507999,-0.135466 -0.524933,1.185331 -0.914399,2.438395 -0.372532,1.236131 -0.609598,2.523062 -0.118533,0.643465 -0.08467,1.371597 0.0508,0.728132 0.3048,1.354664 0.253999,0.626532 0.745065,1.066798 0.507999,0.440266 1.303864,0.524932 3.555993,0.389466 7.078119,-0.152399 l 0.897465,-3.132661 q -1.405464,0.270933 -2.861728,0.321733 -1.456263,0.03387 -2.895594,-0.186266 -0.237066,-0.03387 -0.423332,-0.254 -0.186267,-0.220133 -0.1524,-0.457199 0.0508,-0.389466 0.169333,-0.778932 0.118533,-0.389466 0.2032,-0.778932 h 4.77519 z"
         style="font-style:normal;font-variant:normal;font-weight:normal;font-stretch:normal;font-size:16.9333px;font-family:Masque;-inkscape-font-specification:Masque;fill:url(#linearGradient934);fill-opacity:1;stroke:#000000;stroke-width:0.165;stroke-miterlimit:4;stroke-dasharray:none;stroke-opacity:1"
         id="path1455" />
      <path
         d="m 35.581761,43.062832 h 3.826926 l 3.826926,-12.615308 h -3.793059 l -1.117598,3.657592 h -2.760128 l 1.100664,-3.640659 h -3.776126 l -1.185331,3.860792 q -0.677332,0.1524 -1.202264,0.491066 -0.507999,0.338666 -0.948265,0.829732 -0.423332,0.491065 -0.812798,1.134531 -0.372533,0.626532 -0.778932,1.38853 -0.03387,0.118533 0.1016,0.1524 0.118533,0.03387 0.2032,-0.08467 0.423332,-0.491066 1.083731,-0.812799 0.660398,-0.321733 1.557863,-0.507999 l -1.879596,6.163721 h 3.809993 l 1.913462,-6.299187 h 2.760128 z"
         style="font-style:normal;font-variant:normal;font-weight:normal;font-stretch:normal;font-size:16.9333px;font-family:Masque;-inkscape-font-specification:Masque;fill:url(#linearGradient936);fill-opacity:1;stroke:#000000;stroke-width:0.165;stroke-miterlimit:4;stroke-dasharray:none;stroke-opacity:1"
         id="path1457" />
      <path
         d="m 51.278909,31.785254 q -0.06773,-0.304799 -0.254,-0.541865 -0.169333,-0.237067 -0.423332,-0.4064 -0.254,-0.186266 -0.558799,-0.270932 -0.3048,-0.1016 -0.609599,-0.1016 H 45.64012 l -3.793059,12.615308 h 3.742259 l 2.641595,-8.771449 1.777996,8.771449 h 4.504258 l 3.776126,-12.615308 h -3.623726 l -2.235196,7.315185 z"
         style="font-style:normal;font-variant:normal;font-weight:normal;font-stretch:normal;font-size:16.9333px;font-family:Masque;-inkscape-font-specification:Masque;fill:url(#linearGradient938);fill-opacity:1;stroke:#000000;stroke-width:0.165;stroke-miterlimit:4;stroke-dasharray:none;stroke-opacity:1"
         id="path1459" />
      <path
         d="M 71.226331,33.190718 V 32.733519 Q 71.006198,31.819121 70.396599,31.344988 69.787,30.853923 68.991135,30.63379 q -0.778932,-0.220133 -1.659463,-0.254 -0.863599,-0.03387 -1.608664,-0.03387 -1.507063,0 -2.573861,0.237066 -1.066798,0.220133 -1.777997,0.592665 -0.694265,0.3556 -1.100664,0.795866 -0.389466,0.440265 -0.558799,0.863598 -0.321733,0.778932 -0.643466,1.676397 -0.321732,0.880531 -0.609598,1.811863 -0.270933,0.931331 -0.491066,1.879596 -0.2032,0.931331 -0.287866,1.811863 -0.06773,0.761999 0.118533,1.303864 0.203199,0.524932 0.592665,0.897465 0.389466,0.355599 0.914399,0.575732 0.541865,0.2032 1.151464,0.3048 0.609599,0.118533 1.236131,0.135466 0.626532,0.03387 1.202264,0.03387 0.795865,0 1.574797,-0.06773 0.795865,-0.06773 1.59173,-0.203199 0.982132,-0.169333 1.811863,-0.761999 0.829732,-0.592665 1.253065,-1.523997 0.795865,-1.828796 1.303864,-3.691459 0.507999,-1.879596 0.795865,-3.826926 z m -5.757322,6.468521 q -0.08467,0.389466 -0.372533,0.609599 -0.287866,0.220132 -0.677332,0.321732 -0.372532,0.1016 -0.795865,0.135467 -0.406399,0.01693 -0.728132,0.01693 -0.338666,0.03387 -0.626532,-0.0508 -0.287866,-0.08467 -0.474132,-0.253999 -0.186267,-0.186267 -0.270933,-0.440266 -0.06773,-0.270933 0.01693,-0.609599 0.3048,-1.439331 0.745065,-2.844794 0.440266,-1.405464 0.948265,-2.726262 0.118533,-0.321732 0.372533,-0.507999 0.253999,-0.203199 0.558799,-0.304799 0.321732,-0.118533 0.660398,-0.1524 0.338666,-0.03387 0.626532,-0.03387 0.254,0 0.609599,0.03387 0.3556,0.03387 0.643466,0.1524 0.304799,0.1016 0.474132,0.338666 0.169333,0.220133 0.08467,0.609599 -0.287867,1.473197 -0.745066,2.895594 -0.457199,1.405464 -1.049864,2.810928 z"
         style="font-style:normal;font-variant:normal;font-weight:normal;font-stretch:normal;font-size:16.9333px;font-family:Masque;-inkscape-font-specification:Masque;fill:url(#linearGradient940);fill-opacity:1;stroke:#000000;stroke-width:0.165;stroke-miterlimit:4;stroke-dasharray:none;stroke-opacity:1"
         id="path1461" />
      <path
         d="m 11.286497,54.289282 q 0.541865,0 1.032931,-0.2032 0.507999,-0.203199 0.948265,-0.524932 0.440265,-0.338666 0.812798,-0.761999 0.372533,-0.440265 0.677332,-0.897465 0.541866,-0.846665 0.829732,-1.811863 0.287866,-0.965198 0.287866,-1.964262 0,-0.507999 -0.186266,-0.982132 -0.186267,-0.474132 -0.524933,-0.829732 -0.575732,-0.575732 -1.33773,-0.812798 -0.745066,-0.237066 -1.557864,-0.237066 H 5.8509066 l -3.809992,12.615308 h 3.776126 l 1.100664,-3.589859 z M 7.6797036,51.698487 8.9497006,47.549828 H 11.30343 q 0.237066,0 0.423332,0.118533 0.186267,0.1016 0.321733,0.287867 0.135466,0.169333 0.2032,0.389465 0.08467,0.220133 0.08467,0.423333 0,0.592665 -0.220133,1.117598 -0.203199,0.524932 -0.592665,0.948265 -0.1524,0.169333 -0.3048,0.338666 -0.135466,0.152399 -0.355599,0.270932 -0.2032,0.118533 -0.507999,0.186267 -0.304799,0.06773 -0.7789324,0.06773 z"
         style="font-style:normal;font-variant:normal;font-weight:normal;font-stretch:normal;font-size:16.9333px;font-family:Masque;-inkscape-font-specification:Masque;fill:url(#linearGradient910);fill-opacity:1;stroke:#000000;stroke-width:0.165;stroke-miterlimit:4;stroke-dasharray:none;stroke-opacity:1"
         id="path1463" />
      <path
         d="m 23.32604,57.879141 h 3.555993 l -1.286931,-3.928525 q 0.643466,-0.338666 1.168398,-0.880532 0.541865,-0.558799 0.931331,-1.168398 0.558799,-0.846665 0.829732,-1.811863 0.287866,-0.965198 0.287866,-1.964262 0,-0.728132 -0.321733,-1.269998 -0.321732,-0.541866 -0.829731,-0.897465 -0.507999,-0.355599 -1.151465,-0.524932 -0.643465,-0.169333 -1.28693,-0.169333 h -6.383855 l -3.809992,12.615308 h 3.657593 l 1.083731,-3.589859 h 2.336795 z m -2.777061,-6.180654 1.253064,-4.148659 h 2.336795 q 0.237067,0 0.423333,0.118533 0.203199,0.1016 0.338666,0.287867 0.135466,0.169333 0.203199,0.389465 0.08467,0.220133 0.08467,0.423333 0,0.592665 -0.220133,1.117598 -0.2032,0.524932 -0.592665,0.948265 -0.1524,0.169333 -0.3048,0.338666 -0.135466,0.152399 -0.355599,0.270932 -0.2032,0.118533 -0.524932,0.186267 -0.3048,0.06773 -0.778932,0.06773 z"
         style="font-style:normal;font-variant:normal;font-weight:normal;font-stretch:normal;font-size:16.9333px;font-family:Masque;-inkscape-font-specification:Masque;fill:url(#linearGradient898);fill-opacity:1;stroke:#000000;stroke-width:0.165;stroke-miterlimit:4;stroke-dasharray:none;stroke-opacity:1"
         id="path1465" />
      <path
         d="m 42.189713,47.990094 v -0.457199 q -0.22014,-0.914398 -0.82974,-1.388531 -0.6096,-0.491065 -1.40546,-0.711198 -0.77893,-0.220133 -1.65946,-0.254 -0.8636,-0.03387 -1.60867,-0.03387 -1.50706,0 -2.57386,0.237066 -1.0668,0.220133 -1.778,0.592665 -0.694261,0.3556 -1.10066,0.795866 -0.389466,0.440265 -0.558799,0.863598 -0.321733,0.778932 -0.643465,1.676397 -0.321733,0.880531 -0.609599,1.811863 -0.270933,0.931331 -0.491066,1.879596 -0.203199,0.931331 -0.287866,1.811863 -0.06773,0.761999 0.118533,1.303864 0.2032,0.524932 0.592666,0.897465 0.389466,0.355599 0.914398,0.575732 0.541866,0.2032 1.151464,0.3048 0.609604,0.118533 1.236134,0.135466 0.62653,0.03387 1.20226,0.03387 0.79587,0 1.5748,-0.06773 0.79586,-0.06773 1.59173,-0.203199 0.98213,-0.169333 1.81186,-0.761999 0.82973,-0.592665 1.25307,-1.523997 0.79586,-1.828796 1.30386,-3.691459 0.508,-1.879596 0.79587,-3.826926 z m -5.75733,6.468521 q -0.0847,0.389466 -0.37253,0.609599 -0.28787,0.220132 -0.67733,0.321732 -0.37253,0.1016 -0.79587,0.135467 -0.4064,0.01693 -0.72813,0.01693 -0.33866,0.03387 -0.62653,-0.0508 -0.28787,-0.08467 -0.47413,-0.253999 -0.18627,-0.186267 -0.27094,-0.440266 -0.0677,-0.270933 0.0169,-0.609599 0.3048,-1.439331 0.74506,-2.844794 0.44027,-1.405464 0.94827,-2.726262 0.11853,-0.321732 0.37253,-0.507999 0.254,-0.203199 0.5588,-0.304799 0.32173,-0.118533 0.6604,-0.1524 0.33866,-0.03387 0.62653,-0.03387 0.254,0 0.6096,0.03387 0.3556,0.03387 0.64346,0.1524 0.3048,0.1016 0.47414,0.338666 0.16933,0.220133 0.0847,0.609599 -0.28786,1.473197 -0.74506,2.895594 -0.4572,1.405464 -1.04987,2.810928 z"
         style="font-style:normal;font-variant:normal;font-weight:normal;font-stretch:normal;font-size:16.9333px;font-family:Masque;-inkscape-font-specification:Masque;fill:url(#linearGradient900);fill-opacity:1;stroke:#000000;stroke-width:0.165;stroke-miterlimit:4;stroke-dasharray:none;stroke-opacity:1"
         id="path1467" />
      <path
         d="m 49.860473,57.879141 q 0.54186,0 1.03293,-0.186266 0.508,-0.2032 0.94826,-0.524932 0.44027,-0.338666 0.8128,-0.761999 0.37254,-0.440266 0.67733,-0.897465 0.18627,-0.270932 0.4064,-0.829731 0.22014,-0.575733 0.4572,-1.286931 0.23707,-0.711199 0.4572,-1.507064 0.22014,-0.795865 0.38947,-1.523997 0.18626,-0.728132 0.28786,-1.320797 0.1016,-0.592666 0.1016,-0.931332 0,-0.507999 -0.18626,-0.982131 -0.18627,-0.474133 -0.52493,-0.829732 -0.57574,-0.592665 -1.33774,-0.812798 -0.74506,-0.237066 -1.55786,-0.237066 h -6.90879 l -3.70839,12.649175 z m -4.13173,-2.573861 2.2352,-7.772385 h 2.89559 q 0.23707,0 0.42334,0.118533 0.18626,0.1016 0.32173,0.287866 0.13546,0.169333 0.2032,0.389466 0.0847,0.220133 0.0847,0.423333 0,0.203199 -0.11853,0.660398 -0.1016,0.440266 -0.27093,1.015998 -0.16933,0.575733 -0.37253,1.219198 -0.2032,0.626532 -0.4064,1.202264 -0.2032,0.558799 -0.37254,0.999065 -0.16933,0.423332 -0.254,0.575732 -0.1524,0.254 -0.30479,0.423333 -0.13547,0.169333 -0.3556,0.270932 -0.2032,0.1016 -0.52494,0.1524 -0.3048,0.03387 -0.76199,0.03387 z"
         style="font-style:normal;font-variant:normal;font-weight:normal;font-stretch:normal;font-size:16.9333px;font-family:Masque;-inkscape-font-specification:Masque;fill:url(#linearGradient902);fill-opacity:1;stroke:#000000;stroke-width:0.165;stroke-miterlimit:4;stroke-dasharray:none;stroke-opacity:1"
         id="path1469" />
      <path
         d="m 63.220813,55.20368 v 2.675461 h 3.50519 V 45.2469 h -3.65759 q -0.11853,0 -0.42333,0.0508 -0.3048,0.0508 -0.72813,0.287867 -0.42334,0.237066 -0.93133,0.728131 -0.49107,0.474133 -1.016,1.337731 l -6.12986,10.227713 h 3.97933 l 1.52399,-2.675461 z m -2.59079,-2.285996 2.65852,-4.758257 v 4.758257 z"
         style="font-style:normal;font-variant:normal;font-weight:normal;font-stretch:normal;font-size:16.9333px;font-family:Masque;-inkscape-font-specification:Masque;fill:url(#linearGradient904);fill-opacity:1;stroke:#000000;stroke-width:0.165;stroke-miterlimit:4;stroke-dasharray:none;stroke-opacity:1"
         id="path1471" />
      <path
         d="m 72.009193,54.831147 h -4.16559 l -0.99906,3.014128 h 4.36879 v 0.01693 h 0.0169 q 1.4732,0.01693 2.47226,-0.270933 1.016,-0.287866 1.74413,-0.846665 0.72813,-0.575732 1.27,-1.405464 0.5588,-0.829731 1.1176,-1.896529 0.0508,-0.1016 -0.0508,-0.135467 -0.1016,-0.0508 -0.18627,0 -0.0677,0 -0.0847,0.06773 -0.54186,0.643465 -1.59173,1.032931 l 2.72627,-9.211715 h -3.82693 z"
         style="font-style:normal;font-variant:normal;font-weight:normal;font-stretch:normal;font-size:16.9333px;font-family:Masque;-inkscape-font-specification:Masque;fill:url(#linearGradient906);fill-opacity:1;stroke:#000000;stroke-width:0.165;stroke-miterlimit:4;stroke-dasharray:none;stroke-opacity:1"
         id="path1473" />
      <path
         d="m 86.165433,55.20368 v 2.675461 h 3.50519 V 45.2469 h -3.65759 q -0.11853,0 -0.42333,0.0508 -0.3048,0.0508 -0.72814,0.287867 -0.42333,0.237066 -0.93133,0.728131 -0.49106,0.474133 -1.01599,1.337731 l -6.12986,10.227713 h 3.97933 l 1.52399,-2.675461 z m -2.5908,-2.285996 2.65853,-4.758257 v 4.758257 z"
         style="font-style:normal;font-variant:normal;font-weight:normal;font-stretch:normal;font-size:16.9333px;font-family:Masque;-inkscape-font-specification:Masque;fill:url(#linearGradient908);fill-opacity:1;stroke:#000000;stroke-width:0.165;stroke-miterlimit:4;stroke-dasharray:none;stroke-opacity:1"
         id="path1475" />
    </g>
  </g>
</svg>
